<?xml version="1.0" encoding="UTF-8"?>
<svg version="1.1" xmlns="http://www.w3.org/2000/svg" width="1250" height="1250">
<path d="M0 0 C2.66282723 1.36498414 5.30339757 2.76798246 7.9375 4.1875 C8.58009766 4.53151855 9.22269531 4.87553711 9.88476562 5.22998047 C19.50950436 10.41718263 28.75582728 16.14638197 37.96875 22.02734375 C42.991881 25.23226797 48.05416546 28.37126838 53.125 31.5 C56.72958822 33.72848523 60.33361342 35.9578803 63.9375 38.1875 C64.87722656 38.76870605 65.81695313 39.34991211 66.78515625 39.94873047 C81.48292369 49.0507631 96.01003862 58.38866744 110.45019531 67.89355469 C114.01321925 70.23839506 117.58051234 72.57668892 121.1484375 74.9140625 C127.09650837 78.81106778 133.04023058 82.7146473 138.98231506 86.62077332 C144.09979871 89.9835597 149.22295162 93.33759856 154.34790039 96.68899536 C158.29956758 99.27460926 162.24830925 101.86466945 166.19659424 104.45544434 C168.12358406 105.71857675 170.05173612 106.97993817 171.98114014 108.23937988 C185.59598597 117.12875315 198.76835636 126.08873998 210.71875 137.1796875 C212.26989437 138.58336392 213.87481655 139.92883218 215.515625 141.2265625 C241.37230678 162.16213387 254.52589199 199.28657294 257.9375 231.1875 C259.33673171 245.28024499 259.0810938 259.4366285 259.06822467 273.5817951 C259.06594051 277.30301108 259.06946614 281.02422256 259.07220459 284.74543762 C259.07663829 292.03673492 259.07569386 299.32802189 259.07279195 306.61931958 C259.07051654 312.59078088 259.07023461 318.56223933 259.07131577 324.53370094 C259.071469 325.38998074 259.07162223 326.24626054 259.07178011 327.12848822 C259.07209994 328.86990978 259.07242416 330.61133134 259.0727527 332.3527529 C259.07560356 348.68799824 259.07233279 365.02323798 259.06695233 381.3584824 C259.06253988 395.17575877 259.06327426 408.99302654 259.06787109 422.81030273 C259.11289992 563.11347351 259.11289992 563.11347351 258.64016485 612.5600512 C258.61770376 615.08646218 258.60017236 617.61285872 258.58423233 620.13931847 C258.32370628 659.25342992 258.32370628 659.25342992 252.4375 678 C252.19032227 678.80002441 251.94314453 679.60004883 251.68847656 680.42431641 C246.42161069 696.56301082 238.72482713 712.04622399 227.9375 725.1875 C227.43992187 725.80028809 226.94234375 726.41307617 226.4296875 727.04443359 C205.35017797 752.77727081 178.57033322 770.0239594 149.46313477 785.52563477 C142.63483435 789.18929015 136.18436716 793.13554502 129.81640625 797.5390625 C125.0499471 800.83142425 120.14576517 803.90476268 115.25 807 C108.18066718 811.47931983 101.13417916 815.98960213 94.125 820.5625 C86.65137077 825.43761273 79.1460261 830.26084959 71.625 835.0625 C61.45769935 841.55586931 51.3399445 848.12179469 41.2421875 854.72265625 C34.49852494 859.1308565 27.73334148 863.50550915 20.96582031 867.87695312 C17.45517204 870.14526799 13.94645887 872.41657298 10.4375 874.6875 C9.02084206 875.60418015 7.60417541 876.52084684 6.1875 877.4375 C5.48625 877.89125 4.785 878.345 4.0625 878.8125 C-2.3125 882.9375 -2.3125 882.9375 -4.43798828 884.31274414 C-5.85311471 885.22846201 -7.26815393 886.14431465 -8.68310547 887.06030273 C-12.24763105 889.36760497 -15.81369214 891.67246694 -19.3828125 893.97265625 C-20.45136475 894.66222412 -20.45136475 894.66222412 -21.54150391 895.36572266 C-22.96217347 896.28212726 -24.38371182 897.19718653 -25.80615234 898.11083984 C-29.31757685 900.37477385 -32.79153326 902.67658664 -36.21875 905.06640625 C-36.88696777 905.52781006 -37.55518555 905.98921387 -38.24365234 906.46459961 C-39.49646598 907.33332406 -40.74223773 908.21233753 -41.97900391 909.10375977 C-45.9559028 911.85025253 -49.18788865 913.31366641 -54.0625 913.1875 C-56.57034106 911.06060827 -57.87758613 909.28549865 -58.43052068 906.00223286 C-58.58780665 903.19856469 -58.60621577 900.42078057 -58.58592606 897.61268711 C-58.59791424 895.98819284 -58.59791424 895.98819284 -58.61014462 894.33088049 C-58.63221023 890.67463367 -58.62567344 887.01898652 -58.6194458 883.36268616 C-58.62944729 880.72249869 -58.6410302 878.0823613 -58.65455127 875.44219393 C-58.68083911 869.68336262 -58.69226947 863.92464887 -58.69407272 858.16576004 C-58.69682413 849.59106144 -58.72240222 841.01653735 -58.75264821 832.4418971 C-58.80305314 817.96374054 -58.83469395 803.48559838 -58.85581207 789.0073719 C-58.87698297 774.52852378 -58.90635631 760.04972972 -58.94637299 745.57092094 C-58.94887072 744.66515091 -58.95136846 743.75938088 -58.95394188 742.82616327 C-58.96667919 738.22074431 -58.9795529 733.61532574 -58.99247465 729.0099073 C-59.08408807 696.25573848 -59.15674878 663.50155153 -59.21875 630.74731445 C-59.2780116 599.45659358 -59.34649378 568.16591595 -59.42773438 536.87524414 C-59.43270273 534.95738672 -59.43767064 533.03952929 -59.4426381 531.12167187 C-59.46246367 523.47399592 -59.48235952 515.82632015 -59.50233039 508.17864458 C-59.69038084 436.13700048 -59.84490234 364.09534656 -59.9623642 292.05355263 C-59.96376286 291.19630542 -59.96516152 290.33905822 -59.96660257 289.45583383 C-59.97081384 286.87409368 -59.97502192 284.29235353 -59.9792285 281.71061337 C-59.98060802 280.8640278 -59.98198755 280.01744224 -59.98340888 279.14520256 C-59.9903059 274.91032122 -59.99718185 270.67543985 -60.00402123 266.44055842 C-60.04310012 242.28943473 -60.09110081 218.13834346 -60.1457548 193.98725031 C-60.19783096 170.95573227 -60.24015687 147.92422204 -60.26781058 124.89265889 C-60.28322159 112.2526101 -60.30633215 99.612636 -60.34113109 86.97262533 C-60.36307627 78.69199718 -60.37419588 70.41140252 -60.37599552 62.13074552 C-60.37727949 57.48594676 -60.38317531 52.8412881 -60.40248966 48.19652629 C-60.41976026 44.02356696 -60.42324494 39.85083642 -60.41551456 35.67785054 C-60.41516435 34.18858337 -60.41983633 32.69930414 -60.43021789 31.21007312 C-60.51609905 18.21618692 -58.51462542 5.54291335 -49.515625 -4.546875 C-35.13709726 -17.14661581 -14.48947313 -7.18609631 0 0 Z " fill="#5800FF" transform="translate(865.0625,117.8125)"/>
<path d="M0 0 C0.72396973 0.45407227 1.44793945 0.90814453 2.19384766 1.37597656 C5.22767961 3.28095647 8.25732725 5.19225303 11.27978516 7.11523438 C18.14350089 11.48092643 25.06584801 15.74726135 32 20 C40.40317271 25.15635413 48.77614746 30.35386175 57.09863281 35.6394043 C61.91735804 38.69625087 66.76122857 41.70842396 71.62255859 44.69702148 C81.05678329 50.49764078 90.36107002 56.469409 99.61743164 62.54956055 C105.41427544 66.34620602 111.25567564 70.04320994 117.1875 73.625 C124.31814354 77.93079023 131.31804762 82.41117475 138.28710938 86.97338867 C143.35213187 90.28680585 148.44205752 93.55442685 153.5625 96.78149414 C163.47289593 103.03356032 173.28263018 109.43276855 183.0453186 115.91238403 C184.49575686 116.87462472 185.94720758 117.83534129 187.39974976 118.79440308 C195.567529 124.19162916 203.5086499 129.67417529 211 136 C211.93972656 136.79148437 212.87945313 137.58296875 213.84765625 138.3984375 C230.17923387 152.97300236 241.84728231 170.30629666 249 191 C249.23799316 191.67708008 249.47598633 192.35416016 249.72119141 193.05175781 C256.02681992 211.39619891 257.45862849 230.25433888 257.35403442 249.52453613 C257.35462841 251.49837781 257.35655012 253.47221944 257.35966384 255.44605875 C257.36437846 260.80478076 257.35061463 266.16331213 257.33353782 271.52200294 C257.31840313 277.32546035 257.32088136 283.12891487 257.32116699 288.93238831 C257.31933707 298.96680902 257.30668894 309.00116807 257.28662491 319.03556824 C257.25770977 333.54872791 257.24649099 348.06186179 257.23971556 362.5750466 C257.22855364 386.13386997 257.2042488 409.69266247 257.17138672 433.25146484 C257.16345481 438.94846593 257.15553772 444.64546704 257.14770508 450.34246826 C257.14673317 451.04925509 257.14576126 451.75604191 257.1447599 452.48424652 C257.1222556 468.93431786 257.1050895 485.3843936 257.08935547 501.83447266 C257.08833901 502.89272144 257.08833901 502.89272144 257.08730201 503.972349 C257.07186111 520.07680759 257.05790665 536.18126699 257.04582024 552.28572845 C257.04531044 552.96221443 257.04480065 553.63870041 257.04427541 554.33568596 C257.03969243 560.42012278 257.03511714 566.50455959 257.03078984 572.58899659 C257.01951106 588.40840008 257.00374617 604.22778524 256.98014401 620.04717541 C256.96546181 629.95575502 256.9539809 639.86433464 256.94503821 649.77292109 C256.93970856 655.49304696 256.93263481 661.21315809 256.92116928 666.93327522 C256.91068856 672.16446321 256.90474731 677.39563557 256.90246294 682.62683338 C256.90079709 684.52332351 256.89740541 686.41981304 256.89215316 688.31629664 C256.88526505 690.88594162 256.88451434 693.455517 256.88533211 696.02516937 C256.88184755 696.76809559 256.878363 697.51102181 256.87477285 698.27646095 C256.88277003 701.99067041 257.17587857 705.38218549 258 709 C258.85130427 721.99285696 257.56282087 731.5927756 248.94921875 741.921875 C241.76981074 749.57607352 232.48609509 754.38925311 223.48193359 759.56835938 C209.66720393 767.5370368 196.01904657 775.74364407 182.58886719 784.34423828 C179.76371579 786.15112028 176.93283315 787.94881666 174.1015625 789.74609375 C164.49190791 795.85947937 154.93133446 802.01943237 145.50878906 808.41845703 C126.78393707 821.10908406 110.03326129 831.29571866 86.67578125 827.453125 C71.42979295 823.39773037 58.11923062 812.84578715 45.22851562 804.17578125 C35.77408757 797.81715645 26.18744875 791.68526877 16.54931641 785.60986328 C14.15746157 784.09943513 11.77109687 782.58078897 9.38671875 781.05859375 C0.01659887 775.08785676 -9.44092388 769.26670276 -18.9375 763.5 C-19.53631989 763.13571899 -20.13513977 762.77143799 -20.75210571 762.39611816 C-26.80041264 758.71751767 -32.85868274 755.06304379 -38.9921875 751.52734375 C-40.35162476 750.73650391 -40.35162476 750.73650391 -41.73852539 749.9296875 C-43.3841265 748.97569775 -45.03642238 748.03310556 -46.69702148 747.10546875 C-54.25570079 742.70720996 -59.56067035 737.53438248 -62 729 C-62.25480902 726.06824172 -62.25480902 726.06824172 -62.26171303 722.93313026 C-62.26917846 721.73064445 -62.27664389 720.52815864 -62.28433555 719.28923386 C-62.28240088 717.97486732 -62.2804662 716.66050077 -62.2784729 715.30630493 C-62.28348066 713.88631524 -62.28935825 712.46632839 -62.29602724 711.04634553 C-62.3118519 707.1359922 -62.31526237 703.22571073 -62.3166766 699.31532924 C-62.32037683 695.07377303 -62.33554604 690.83225558 -62.34926319 686.59072208 C-62.37457852 678.20003027 -62.38921619 669.80935071 -62.40055705 661.4186297 C-62.41452958 651.43628952 -62.43977747 641.4539863 -62.46534484 631.47167023 C-62.51745046 610.95476295 -62.55595437 590.43784391 -62.59017223 569.92090005 C-62.61650944 554.18001628 -62.64674942 538.43914419 -62.67959595 522.69827271 C-62.68896198 518.1915967 -62.69831163 513.68492065 -62.70765209 509.17824459 C-62.7099687 508.06058626 -62.71228531 506.94292793 -62.71467211 505.79140116 C-62.82539301 452.21984903 -62.90834836 398.64826706 -62.98189545 345.07665253 C-62.99653149 334.41719418 -63.01187004 323.75773696 -63.02744627 313.09827995 C-63.09725802 265.31145304 -63.15139452 217.52464881 -63.17658204 169.73777652 C-63.18288213 157.8682709 -63.19295368 145.99877435 -63.2058272 134.12927412 C-63.22226012 118.96395165 -63.23211441 103.79864999 -63.22985047 88.63331789 C-63.22891759 81.41044693 -63.23088179 74.18761014 -63.24185371 66.96474648 C-63.25180319 60.41093464 -63.25172582 53.85718006 -63.2444694 47.3033607 C-63.24345409 44.9441024 -63.2458008 42.58483972 -63.25187993 40.22558904 C-63.33477676 5.89645072 -63.33477676 5.89645072 -53.14453125 -6.203125 C-36.35033118 -22.15929114 -16.25566076 -10.2477496 0 0 Z " fill="#009CDF" transform="translate(526,311)"/>
<path d="M0 0 C6.1637004 3.48914318 12.12731326 7.29600683 18.08300781 11.12597656 C21.03401498 13.02185295 23.99607262 14.89931914 26.9609375 16.7734375 C38.68639376 24.20651417 50.28230632 31.81820837 61.81280518 39.5484314 C68.73356806 44.18710033 75.68691199 48.74183757 82.78955078 53.09741211 C90.65894436 57.96263234 98.30669849 63.17146095 105.99316406 68.31835938 C112.9596413 72.98178679 119.94581492 77.6093547 127.00952148 82.12475586 C131.25151 84.84286028 135.44810139 87.62633336 139.63671875 90.42578125 C145.84575523 94.5750057 152.07599984 98.69108684 158.31640625 102.79296875 C169.55425504 110.18022165 180.78308283 117.58099663 192 125 C192.69025269 125.45638855 193.38050537 125.9127771 194.0916748 126.38299561 C205.60284322 134.00055943 216.80984422 141.6551106 227 151 C227.96486328 151.86044922 227.96486328 151.86044922 228.94921875 152.73828125 C238.68591561 161.88487527 246.45559781 173.44594481 253 185 C253.52078125 185.90492188 254.0415625 186.80984375 254.578125 187.7421875 C262.22756657 201.95404473 266.77750991 218.06645569 269 234 C269.0942627 234.64428955 269.18852539 235.2885791 269.28564453 235.95239258 C270.21084738 243.01705875 270.14710598 250.07305975 270.125 257.1875 C270.12886719 258.41275391 270.13273437 259.63800781 270.13671875 260.90039062 C270.13478516 262.7344043 270.13478516 262.7344043 270.1328125 264.60546875 C270.13168457 265.68981201 270.13055664 266.77415527 270.12939453 267.89135742 C270.07152033 271.33781917 269.7632179 274.74268719 269.46484375 278.17602539 C268.83549493 286.69951496 269.08979535 295.15590943 269.34497452 303.69200897 C270.10332666 329.52857157 270.15888748 355.35783956 270.12877274 381.20337296 C270.12492881 384.81692795 270.12291012 388.43048023 270.12130737 392.04403687 C270.1022714 428.63497129 269.90745988 465.22323431 269.5625 501.8125 C269.5526432 502.88058395 269.54278641 503.94866791 269.53263092 505.04911804 C269.3046954 529.69916385 268.96969208 554.34557873 268.49609375 578.9921875 C268.47526796 580.07997309 268.45444218 581.16775867 268.43298531 582.28850746 C268.10584294 599.19740509 267.72685911 616.10273269 267 633 C266.96406738 633.86334961 266.92813477 634.72669922 266.89111328 635.61621094 C266.37048675 647.44426987 266.37048675 647.44426987 264 651 C262.53125 650.08203125 261.0625 649.1640625 259.59375 648.24609375 C258.63452637 647.64659912 257.67530273 647.04710449 256.68701172 646.42944336 C254.53231643 645.08271754 252.37769603 643.73587188 250.22314453 642.38891602 C244.76244481 638.97528671 239.3008095 635.56319827 233.8359375 632.15625 C223.28540642 625.57595061 212.76286283 618.95559743 202.28198242 612.26489258 C195.60927268 608.01027216 188.9045666 603.80916932 182.1875 599.625 C166.04966605 589.5659384 150.05053894 579.29068161 134.10107422 568.93603516 C128.98933245 565.62376548 123.84306361 562.36854211 118.6875 559.125 C109.51821454 553.35435051 100.43472398 547.45675577 91.36083984 541.53759766 C87.80894575 539.22427511 84.24811499 536.92486575 80.6875 534.625 C77.79094255 532.75111717 74.89536599 530.87572314 72 529 C71.19385254 528.47809082 70.38770508 527.95618164 69.55712891 527.41845703 C57.00090432 519.28232899 44.51460403 511.04427838 32.0625 502.75 C31.38074707 502.29636078 30.69899414 501.84272156 29.99658203 501.37533569 C22.4216989 496.33299001 14.87288093 491.25425474 7.3671875 486.109375 C6.39018639 485.44128815 6.39018639 485.44128815 5.39344788 484.75970459 C-4.52374973 477.93850434 -12.76522547 470.71970604 -20 461 C-20.75152344 460.00097656 -21.50304687 459.00195312 -22.27734375 457.97265625 C-39.24879534 434.50273431 -46.90789182 407.76192842 -47.29663086 378.98242188 C-47.31589945 377.77320068 -47.33516804 376.56397949 -47.35502052 375.31811523 C-47.40694325 371.92692994 -47.45427702 368.53574918 -47.49864316 365.14446068 C-47.52776158 362.93707584 -47.55835129 360.72971518 -47.58921623 358.52235413 C-48.22442268 312.59154507 -48.33628005 266.65486632 -48.51740968 220.72056293 C-48.55199493 211.99550193 -48.58907743 203.27045424 -48.62768555 194.54541016 C-48.63312209 193.31485146 -48.63855863 192.08429276 -48.64415991 190.8164444 C-48.65511354 188.33763885 -48.66606764 185.85883331 -48.67702222 183.38002777 C-48.77127852 162.00858743 -48.85394511 140.63714509 -48.92120481 119.26560211 C-48.95939955 107.14783023 -49.00631234 95.03026513 -49.08392793 82.91267633 C-49.12626978 76.2830122 -49.15966366 69.65335491 -49.18479842 63.02360296 C-49.19908648 59.38135337 -49.21827966 55.73931367 -49.25146675 52.09718323 C-49.58944047 14.24042964 -49.58944047 14.24042964 -39.14453125 3.00390625 C-27.48161868 -7.84688862 -13.59241145 -7.21799227 0 0 Z " fill="#00D7FF" transform="translate(174,378)"/>
</svg>
